<svg xmlns="http://www.w3.org/2000/svg" xmlns:xlink="http://www.w3.org/1999/xlink" width="356.82" height="76.174" viewBox="0 0 356.82 76.174">
  <defs>
    <linearGradient id="linear-gradient" y1="0.5" x2="1" y2="0.5" gradientUnits="objectBoundingBox">
      <stop offset="0" stop-color="#fff"/>
      <stop offset="0.99" stop-color="#ffffc7" stop-opacity="0"/>
    </linearGradient>
  </defs>
  <g id="Layer_1-2" transform="translate(-0.01 0.004)">
    <path id="Path_216" data-name="Path 216" d="M308.49,40.25c-3.91.39-5.55-1.02-7.52-4.16-18.14-28.92-57.15-29.36-76.24-1.02-.91,1.35-2.04,2.55-3.2,3.98-10.33-8.41-21.88-10.41-34.18-8.14C179.29,11.52,165.27.47,144.95.01c-21.46-.48-35.92,11.13-44.59,30.8-10.87-4.95-21.54-5.8-32.54-.33-11.08,5.5-16.14,15.02-18.99,26.2-22.1-5.86-44,2.85-48.82,19.49H356.83s-4-33-48.33-35.91Z" opacity="0.5" fill="url(#linear-gradient)"/>
  </g>
</svg>
