<svg xmlns="http://www.w3.org/2000/svg" width="44.781" height="47.41" viewBox="0 0 44.781 47.41">
  <g id="Group_386" data-name="Group 386" transform="translate(-1564.31 -836.187)">
    <text id="CO2" transform="translate(1587.402 853.49)" font-size="8.25" font-family="HelveticaNeue, Helvetica Neue"><tspan x="0" y="0">CO2</tspan></text>
    <path id="Path_241" data-name="Path 241" d="M558.359,676.136V660.985a2.8,2.8,0,0,0-2.8-2.8H517.84a2.8,2.8,0,0,0-2.8,2.8v40.349a2.8,2.8,0,0,0,2.8,2.8h17.327" transform="translate(1050 178.732)" fill="none" stroke="#000" stroke-linecap="round" stroke-linejoin="round" stroke-width="1.463"/>
    <path id="Rectangle_151" data-name="Rectangle 151" d="M1.216,0H19.427a1.216,1.216,0,0,1,1.216,1.216V23.994a1.217,1.217,0,0,1-1.217,1.217H1.217A1.217,1.217,0,0,1,0,23.994V1.216A1.216,1.216,0,0,1,1.216,0Z" transform="translate(1587.728 857.654)" fill="none" stroke="#000" stroke-linecap="round" stroke-linejoin="round" stroke-width="1.223"/>
    <path id="Path_242" data-name="Path 242" d="M558.408,700.3a1.216,1.216,0,0,1-1.216,1.216H538.981a1.216,1.216,0,0,1-1.217-1.216" transform="translate(1050 178.732)" fill="none" stroke="#000" stroke-linecap="round" stroke-linejoin="round" stroke-width="0.862"/>
    <rect id="Rectangle_152" data-name="Rectangle 152" width="14.747" height="3.392" rx="0.475" transform="translate(1590.676 860.381)" fill="none" stroke="#000" stroke-linecap="round" stroke-linejoin="round" stroke-width="0.862"/>
    <rect id="Rectangle_153" data-name="Rectangle 153" width="2.285" height="2.285" rx="0.355" transform="translate(1590.934 866.096)" fill="none" stroke="#000" stroke-linecap="round" stroke-linejoin="round" stroke-width="0.862"/>
    <rect id="Rectangle_154" data-name="Rectangle 154" width="2.285" height="2.285" rx="0.355" transform="translate(1590.934 870.74)" fill="none" stroke="#000" stroke-linecap="round" stroke-linejoin="round" stroke-width="0.862"/>
    <rect id="Rectangle_155" data-name="Rectangle 155" width="2.285" height="2.285" rx="0.355" transform="translate(1590.934 875.384)" fill="none" stroke="#000" stroke-linecap="round" stroke-linejoin="round" stroke-width="0.862"/>
    <rect id="Rectangle_156" data-name="Rectangle 156" width="2.285" height="2.285" rx="0.355" transform="translate(1594.941 866.096)" fill="none" stroke="#000" stroke-linecap="round" stroke-linejoin="round" stroke-width="0.862"/>
    <rect id="Rectangle_157" data-name="Rectangle 157" width="2.285" height="2.285" rx="0.355" transform="translate(1594.941 870.74)" fill="none" stroke="#000" stroke-linecap="round" stroke-linejoin="round" stroke-width="0.862"/>
    <rect id="Rectangle_158" data-name="Rectangle 158" width="2.285" height="2.285" rx="0.355" transform="translate(1594.941 875.384)" fill="none" stroke="#000" stroke-linecap="round" stroke-linejoin="round" stroke-width="0.862"/>
    <rect id="Rectangle_159" data-name="Rectangle 159" width="2.285" height="2.285" rx="0.355" transform="translate(1598.947 866.096)" fill="none" stroke="#000" stroke-linecap="round" stroke-linejoin="round" stroke-width="0.862"/>
    <rect id="Rectangle_160" data-name="Rectangle 160" width="2.285" height="2.285" rx="0.355" transform="translate(1598.947 870.74)" fill="none" stroke="#000" stroke-linecap="round" stroke-linejoin="round" stroke-width="0.862"/>
    <rect id="Rectangle_161" data-name="Rectangle 161" width="2.285" height="2.285" rx="0.355" transform="translate(1598.947 875.384)" fill="none" stroke="#000" stroke-linecap="round" stroke-linejoin="round" stroke-width="0.862"/>
    <path id="Path_243" data-name="Path 243" d="M554.1,689.649h0a1.142,1.142,0,1,1,1.143-1.143A1.143,1.143,0,0,1,554.1,689.649Z" transform="translate(1050 178.732)" fill="none" stroke="#000" stroke-linecap="round" stroke-linejoin="round" stroke-width="0.862"/>
    <path id="Path_244" data-name="Path 244" d="M554.1,694.293h0a1.143,1.143,0,1,1,1.143-1.143A1.143,1.143,0,0,1,554.1,694.293Z" transform="translate(1050 178.732)" fill="none" stroke="#000" stroke-linecap="round" stroke-linejoin="round" stroke-width="0.862"/>
    <path id="Path_245" data-name="Path 245" d="M554.1,698.937h0a1.143,1.143,0,1,1,1.143-1.143A1.143,1.143,0,0,1,554.1,698.937Z" transform="translate(1050 178.732)" fill="none" stroke="#000" stroke-linecap="round" stroke-linejoin="round" stroke-width="0.862"/>
    <path id="Path_246" data-name="Path 246" d="M530.367,675.682v-12.2a.477.477,0,0,1,.477-.47h2.163a.475.475,0,0,1,.486.466v12.213" transform="translate(1050 178.732)" fill="none" stroke="#000" stroke-linecap="round" stroke-linejoin="round" stroke-width="0.761"/>
    <path id="Path_247" data-name="Path 247" d="M525.45,675.682V668.47a.476.476,0,0,1,.477-.477h2.16a.487.487,0,0,1,.486.477v7.212" transform="translate(1050 178.732)" fill="none" stroke="#000" stroke-linecap="round" stroke-linejoin="round" stroke-width="0.761"/>
    <path id="Path_248" data-name="Path 248" d="M520.534,675.682v-3.974a.476.476,0,0,1,.477-.477h2.163a.477.477,0,0,1,.486.467v3.984" transform="translate(1050 178.732)" fill="none" stroke="#000" stroke-linecap="round" stroke-linejoin="round" stroke-width="0.761"/>
    <line id="Line_79" data-name="Line 79" x2="15.058" transform="translate(1569.419 854.415)" fill="none" stroke="#000" stroke-linecap="round" stroke-linejoin="round" stroke-width="0.761"/>
    <path id="Path_249" data-name="Path 249" d="M520.817,696.49a7.7,7.7,0,0,1,5.056-12.456l-.068,7.2Z" transform="translate(1050 178.732)" fill="none" stroke="#000" stroke-linecap="round" stroke-linejoin="round" stroke-width="0.8"/>
    <path id="Path_250" data-name="Path 250" d="M526.839,692.534l-4.831,5.155a7.7,7.7,0,0,0,12.47-5.213Z" transform="translate(1050 178.732)" fill="none" stroke="#000" stroke-linecap="round" stroke-linejoin="round" stroke-width="0.8"/>
    <path id="Path_251" data-name="Path 251" d="M527.5,690.785h6.967a7.7,7.7,0,0,0-6.965-6.778Z" transform="translate(1050 178.732)" fill="none" stroke="#000" stroke-linecap="round" stroke-linejoin="round" stroke-width="0.8"/>
  </g>
</svg>
