<svg xmlns="http://www.w3.org/2000/svg" width="44.317" height="47.46" viewBox="0 0 44.317 47.46">
  <g id="Group_388" data-name="Group 388" transform="translate(-1296.497 -836.208)">
    <path id="Path_223" data-name="Path 223" d="M247.636,693.025h9.125c1.6,0,1.69.094,1.69,1.712v9.081" transform="translate(1050 178.732)" fill="none" stroke="#000" stroke-linecap="round" stroke-linejoin="round" stroke-width="1.419"/>
    <path id="Path_224" data-name="Path 224" d="M284.432,701.429a3.652,3.652,0,0,1-3.693,2.782c-1.606.019-16.477.023-22.267,0a1.585,1.585,0,0,1-1.023-.353c-3.165-3.114-6.3-6.264-9.452-9.387a2.548,2.548,0,0,1-.786-1.978c.008-1.948.01-13.7.01-16.69v-.692c-.007-13.564-.007-12.275-.007-12.275a7.958,7.958,0,0,1,.143-1.854,3.653,3.653,0,0,1,3.693-2.782c1.612-.022-.872-.013.74-.011h28.217c1.612,0-.872-.011.74.011a3.653,3.653,0,0,1,3.693,2.782,7.958,7.958,0,0,1,.143,1.854s0,5.782,0,16.843" transform="translate(1050 178.732)" fill="none" stroke="#000" stroke-linecap="round" stroke-linejoin="round" stroke-width="1.419"/>
    <line id="Line_53" data-name="Line 53" x1="2.689" transform="translate(1313.467 862.056)" fill="none" stroke="#000" stroke-linecap="round" stroke-linejoin="round" stroke-width="1.419"/>
    <line id="Line_54" data-name="Line 54" x1="6.927" transform="translate(1303.466 862.056)" fill="none" stroke="#000" stroke-linecap="round" stroke-linejoin="round" stroke-width="1.419"/>
    <line id="Line_55" data-name="Line 55" x1="17.257" transform="translate(1311.466 855.925)" fill="none" stroke="#000" stroke-linecap="round" stroke-linejoin="round" stroke-width="1.419"/>
    <line id="Line_56" data-name="Line 56" x1="4.257" transform="translate(1303.466 855.925)" fill="none" stroke="#000" stroke-linecap="round" stroke-linejoin="round" stroke-width="1.419"/>
    <line id="Line_57" data-name="Line 57" x1="11.177" transform="translate(1317.22 849.794)" fill="none" stroke="#000" stroke-linecap="round" stroke-linejoin="round" stroke-width="1.419"/>
    <line id="Line_58" data-name="Line 58" x1="12.918" transform="translate(1315.67 843.663)" fill="none" stroke="#000" stroke-linecap="round" stroke-linejoin="round" stroke-width="1.419"/>
    <line id="Line_59" data-name="Line 59" x1="3.62" transform="translate(1313.018 874.317)" fill="none" stroke="#000" stroke-linecap="round" stroke-linejoin="round" stroke-width="1.419"/>
    <line id="Line_60" data-name="Line 60" x1="5.62" transform="translate(1309.568 868.187)" fill="none" stroke="#000" stroke-linecap="round" stroke-linejoin="round" stroke-width="1.419"/>
    <line id="Line_61" data-name="Line 61" x1="2.722" transform="translate(1303.466 868.187)" fill="none" stroke="#000" stroke-linecap="round" stroke-linejoin="round" stroke-width="1.419"/>
    <circle id="Ellipse_3" data-name="Ellipse 3" cx="2.337" cy="2.337" r="2.337" transform="translate(1304.997 842.49)" fill="none" stroke="#000" stroke-linecap="round" stroke-linejoin="round" stroke-width="1.419"/>
    <path id="Path_225" data-name="Path 225" d="M262.056,672.606h0a3.148,3.148,0,0,0-3.148-3.148H255.76a3.149,3.149,0,0,0-3.148,3.148" transform="translate(1050 178.732)" fill="none" stroke="#000" stroke-linecap="round" stroke-linejoin="round" stroke-width="1.419"/>
    <path id="Path_226" data-name="Path 226" d="M289.4,701.073a1.8,1.8,0,0,1-2.453.083c-1.347-1.187-2.63-2.385-3.951-3.6a1.9,1.9,0,0,1-.44-2.244l-.862-.755a7.7,7.7,0,0,1-10.887-.038c-.143-.144-.281-.294-.412-.449a7.969,7.969,0,0,1,.285-10.637,7.679,7.679,0,0,1,10.48-.6,8,8,0,0,1,1.189,10.977c.257.225.513.457.784.675a.262.262,0,0,0,.219-.012,1.871,1.871,0,0,1,2.234.34c1.132,1.046,2.231,2.063,3.384,3.088a5.826,5.826,0,0,1,.586.579A1.924,1.924,0,0,1,289.4,701.073Z" transform="translate(1050 178.732)" fill="none" stroke="#000" stroke-linecap="round" stroke-linejoin="round" stroke-width="1.419"/>
    <path id="Path_227" data-name="Path 227" d="M272.483,690.686l1.182.98a.871.871,0,0,0,1.212-.088l4.793-5.392" transform="translate(1050 178.732)" fill="none" stroke="#000" stroke-linecap="round" stroke-linejoin="round" stroke-width="1.419"/>
  </g>
</svg>
