<svg xmlns="http://www.w3.org/2000/svg" xmlns:xlink="http://www.w3.org/1999/xlink" width="682.163" height="676.151" viewBox="0 0 682.163 676.151">
  <defs>
    <clipPath id="clip-path">
      <rect id="Rectangle_989" data-name="Rectangle 989" width="435.374" height="435.374" fill="none"/>
    </clipPath>
    <clipPath id="clip-path-2">
      <rect id="Rectangle_990" data-name="Rectangle 990" width="335.929" height="335.929" fill="none"/>
    </clipPath>
    <clipPath id="clip-path-3">
      <rect id="Rectangle_991" data-name="Rectangle 991" width="240.673" height="240.673" fill="none"/>
    </clipPath>
  </defs>
  <g id="Group_6305" data-name="Group 6305" transform="translate(-212.837 876) rotate(-90)">
    <g id="Group_5503" data-name="Group 5503" transform="translate(-31.348 -33.521)">
      <g id="Group_5488" data-name="Group 5488" transform="translate(351.585 369.753)" opacity="0.2">
        <g id="Group_5487" data-name="Group 5487">
          <g id="Group_5486" data-name="Group 5486" clip-path="url(#clip-path)">
            <path id="Path_7294" data-name="Path 7294" d="M479.869,263.294c0,120.223-97.463,217.686-217.686,217.686S44.494,383.517,44.494,263.294,141.957,45.605,262.183,45.605s217.686,97.463,217.686,217.689" transform="translate(-44.494 -45.605)" fill="#fff"/>
          </g>
        </g>
      </g>
      <g id="Group_5491" data-name="Group 5491" transform="translate(401.308 419.475)" opacity="0.3">
        <g id="Group_5490" data-name="Group 5490">
          <g id="Group_5489" data-name="Group 5489" clip-path="url(#clip-path-2)">
            <path id="Path_7295" data-name="Path 7295" d="M395,228.146A167.964,167.964,0,1,1,227.037,60.183,167.963,167.963,0,0,1,395,228.146" transform="translate(-59.071 -60.18)" fill="#fff"/>
          </g>
        </g>
      </g>
      <g id="Group_5494" data-name="Group 5494" transform="translate(448.936 467.103)" opacity="0.3">
        <g id="Group_5493" data-name="Group 5493">
          <g id="Group_5492" data-name="Group 5492" clip-path="url(#clip-path-3)">
            <path id="Path_7296" data-name="Path 7296" d="M315.806,196.581A120.336,120.336,0,1,1,195.47,76.245,120.334,120.334,0,0,1,315.806,196.581" transform="translate(-75.133 -76.243)" fill="#fff"/>
          </g>
        </g>
      </g>
      <circle id="Ellipse_5" data-name="Ellipse 5" cx="244.79" cy="244.79" r="244.79" transform="translate(324.483 342.65)" fill="none" stroke="#fff" stroke-width="1.012"/>
      <path id="Path_7297" data-name="Path 7297" d="M519.735,280.258C503.084,189.37,449.627,105.563,365.071,53.2S181.661-9.676,92.884,15.922l-2.855-1.767c6.174-1.818,12.411-3.493,18.729-4.976A340.953,340.953,0,0,1,518.7,263.044c1.483,6.312,2.765,12.644,3.888,18.981Z" transform="translate(384.761 246.359)" fill="#fff"/>
      <path id="Path_7298" data-name="Path 7298" d="M8.991,177.335l-2.11-1.31A344.548,344.548,0,0,1,106.335,30.439l2.208,1.366A338.98,338.98,0,0,0,8.991,177.335" transform="translate(242.934 298.279)" fill="#fff"/>
      <path id="Path_7299" data-name="Path 7299" d="M2.66,135.566c7.27,105.1,63.216,205.386,159.424,264.966,158.739,98.3,367.856,49.136,466.158-109.609a337.345,337.345,0,0,0,40.578-95.937l2.208,1.369a341.893,341.893,0,0,1-40.794,95.8A340.958,340.958,0,0,1,160.85,402.52,338.725,338.725,0,0,1,8.455,190.69,345.032,345.032,0,0,1,0,133.921Z" transform="translate(231.197 474.79)" fill="#fff"/>
      <path id="Path_7300" data-name="Path 7300" d="M475.519,234.9A280.294,280.294,0,0,0,451.9,173.632C381.222,39.529,216.592-13.742,81.211,51.945l-1.044-1.986A282.865,282.865,0,0,1,453.878,172.588a284.914,284.914,0,0,1,24.2,62.97Z" transform="translate(367.939 282.958)" fill="#fff"/>
      <path id="Path_7301" data-name="Path 7301" d="M313.38,145.965l2.316.6a287.734,287.734,0,0,1-7.389,29.246q-1.356,4.375-2.838,8.677A280.728,280.728,0,0,1,178.261,337.811l-1.044-1.986C250.5,294.03,298.13,223.5,313.38,145.965" transform="translate(533.479 495.333)" fill="#fff"/>
      <path id="Path_7302" data-name="Path 7302" d="M49.094,62.949q6.084-6.551,12.6-12.717L62.834,52.4Q57.1,57.866,51.743,63.628Z" transform="translate(314.937 332.04)" fill="#fff"/>
      <path id="Path_7303" data-name="Path 7303" d="M34.655,94.355l2.319.6A279.714,279.714,0,0,0,55.935,311c59.742,113.359,186.619,168.937,306.217,143.747l1.142,2.167A282.987,282.987,0,0,1,33.989,96.444c.214-.7.441-1.393.666-2.089" transform="translate(267.332 407.301)" fill="#fff"/>
      <path id="Path_7304" data-name="Path 7304" d="M112.064,242.4c-4.5-.925-9.029-1.962-13.474-3.087l.566-2.232c4.41,1.12,8.913,2.151,13.372,3.068Z" transform="translate(399.364 650.747)" fill="#fff"/>
      <path id="Path_7305" data-name="Path 7305" d="M234.232,175.46l2.07.993c-1.983,4.137-4.088,8.279-6.248,12.308l-2.027-1.085c2.146-4,4.229-8.114,6.2-12.216" transform="translate(620.148 545.644)" fill="#fff"/>
      <path id="Path_7306" data-name="Path 7306" d="M237.507,166.152l2.154.809c-1.607,4.28-3.336,8.593-5.135,12.8l-2.113-.9c1.783-4.183,3.5-8.455,5.095-12.709" transform="translate(627.626 529.767)" fill="#fff"/>
      <path id="Path_7307" data-name="Path 7307" d="M242.066,136.593l2.289.211c-.425,4.578-.955,9.2-1.577,13.734l-2.276-.311c.617-4.5,1.145-9.094,1.564-13.634" transform="translate(641.426 479.347)" fill="#fff"/>
      <path id="Path_7308" data-name="Path 7308" d="M225.187,192.861l1.867,1.342c-2.676,3.715-5.479,7.424-8.323,11.031l-1.8-1.42c2.825-3.582,5.6-7.268,8.258-10.953" transform="translate(601.217 575.325)" fill="#fff"/>
      <path id="Path_7309" data-name="Path 7309" d="M239.924,156.523l2.219.614c-1.228,4.416-2.57,8.872-3.991,13.234l-2.183-.714c1.41-4.329,2.741-8.75,3.956-13.134" transform="translate(633.692 513.342)" fill="#fff"/>
      <path id="Path_7310" data-name="Path 7310" d="M241.444,146.639l2.262.419c-.828,4.516-1.767,9.067-2.795,13.531l-2.235-.509c1.015-4.437,1.948-8.956,2.768-13.442" transform="translate(638.311 496.483)" fill="#fff"/>
      <path id="Path_7311" data-name="Path 7311" d="M122.291,243.265c-4.559-.519-9.164-1.15-13.694-1.872l.363-2.27c4.494.717,9.07,1.345,13.594,1.862Z" transform="translate(416.433 654.233)" fill="#fff"/>
      <path id="Path_7312" data-name="Path 7312" d="M142.653,240.328l.143,2.3c-4.581.284-9.229.471-13.81.552l-.046-2.294c4.554-.087,9.167-.271,13.713-.555" transform="translate(451.132 656.29)" fill="#fff"/>
      <path id="Path_7313" data-name="Path 7313" d="M132.606,240.922l-.051,2.3c-4.592-.119-9.235-.338-13.81-.657l.157-2.289c4.54.311,9.153.536,13.7.647" transform="translate(433.742 656.2)" fill="#fff"/>
      <path id="Path_7314" data-name="Path 7314" d="M219.5,200.818l1.74,1.5c-3,3.477-6.115,6.929-9.262,10.26L210.3,211c3.125-3.309,6.215-6.737,9.194-10.184" transform="translate(589.911 588.897)" fill="#fff"/>
      <path id="Path_7315" data-name="Path 7315" d="M213.081,208.2l1.6,1.648c-3.293,3.2-6.7,6.364-10.133,9.416l-1.526-1.718c3.4-3.03,6.786-6.169,10.057-9.346" transform="translate(577.499 601.482)" fill="#fff"/>
      <path id="Path_7316" data-name="Path 7316" d="M188.132,226.045c2.616-1.656,5.222-3.339,7.774-5.062l1.285,1.908c-2.914,1.967-5.9,3.891-8.894,5.766Z" transform="translate(552.097 623.293)" fill="#fff"/>
      <path id="Path_7317" data-name="Path 7317" d="M206,214.937l1.448,1.78c-3.563,2.9-7.238,5.755-10.928,8.488l-1.369-1.848c3.661-2.714,7.311-5.549,10.85-8.42" transform="translate(564.064 612.98)" fill="#fff"/>
      <path id="Path_7318" data-name="Path 7318" d="M230.114,184.385l1.978,1.177c-2.343,3.937-4.805,7.882-7.319,11.713l-1.921-1.261c2.495-3.8,4.938-7.717,7.262-11.629" transform="translate(611.32 560.867)" fill="#fff"/>
      <path id="Path_7319" data-name="Path 7319" d="M199.942,38.637l1.464-1.772c3.542,2.928,7.062,5.966,10.458,9.034l-1.545,1.707c-3.366-3.044-6.862-6.064-10.376-8.969" transform="translate(572.242 309.239)" fill="#fff"/>
      <path id="Path_7320" data-name="Path 7320" d="M184.393,25.3c3.983,2.254,7.976,4.629,11.867,7.065l-1.218,1.948c-3.866-2.413-7.825-4.776-11.781-7.008Z" transform="translate(543.79 289.511)" fill="#fff"/>
      <path id="Path_7321" data-name="Path 7321" d="M193.154,30.711c3.769,2.6,7.541,5.314,11.2,8.082l-1.383,1.834c-3.639-2.746-7.381-5.447-11.123-8.022Z" transform="translate(558.444 298.742)" fill="#fff"/>
      <path id="Path_7322" data-name="Path 7322" d="M175.4,21.056c3.436,1.594,6.87,3.241,10.236,4.951L184.6,28.056c-2.971-1.51-6-2.965-9.029-4.386Z" transform="translate(530.382 282.274)" fill="#fff"/>
      <path id="Path_7323" data-name="Path 7323" d="M125.04,12.742l-.041-2.3c4.137-.07,8.326-.049,12.479.043l.143,2.3c-4.186-.1-8.409-.119-12.582-.046" transform="translate(444.41 264.099)" fill="#fff"/>
      <path id="Path_7324" data-name="Path 7324" d="M152.549,239.267l.149,2.3c-4.435.66-8.937,1.239-13.393,1.71l-.243-2.286c4.486-.474,9.026-1.055,13.488-1.726" transform="translate(468.396 654.48)" fill="#fff"/>
      <path id="Path_7325" data-name="Path 7325" d="M209.082,43.713c3.266,3.223,6.5,6.561,9.63,9.925L217.026,55.2c-3.1-3.339-6.315-6.656-9.559-9.857Z" transform="translate(585.077 320.92)" fill="#fff"/>
      <path id="Path_7326" data-name="Path 7326" d="M216.12,51.2c2.968,3.5,5.9,7.108,8.718,10.742l-1.813,1.407c-2.8-3.6-5.712-7.192-8.656-10.661Z" transform="translate(596.85 333.698)" fill="#fff"/>
      <path id="Path_7327" data-name="Path 7327" d="M232.875,76.956c1.948,4.161,3.831,8.428,5.593,12.679l-2.127.879c-1.745-4.218-3.615-8.453-5.547-12.584Z" transform="translate(624.867 377.623)" fill="#fff"/>
      <path id="Path_7328" data-name="Path 7328" d="M222.468,59.282c2.652,3.75,5.255,7.611,7.738,11.475L228.274,72c-2.468-3.834-5.052-7.665-7.684-11.388Z" transform="translate(607.461 347.477)" fill="#fff"/>
      <path id="Path_7329" data-name="Path 7329" d="M228.07,67.888c2.308,3.972,4.562,8.05,6.694,12.122l-2.04,1.066c-2.113-4.042-4.348-8.09-6.643-12.032Z" transform="translate(616.827 362.156)" fill="#fff"/>
      <path id="Path_7330" data-name="Path 7330" d="M28.486,187.981c-2.14-4.075-4.213-8.25-6.166-12.406L24.4,174.6c1.937,4.123,4,8.269,6.12,12.316Z" transform="translate(269.269 544.173)" fill="#fff"/>
      <path id="Path_7331" data-name="Path 7331" d="M16.543,109.089,14.3,108.58c1.02-4.47,2.156-8.978,3.379-13.407l2.216.612c-1.212,4.4-2.34,8.872-3.352,13.3" transform="translate(255.589 408.697)" fill="#fff"/>
      <path id="Path_7332" data-name="Path 7332" d="M27.023,80.206l-2.029-1.085c2.162-4.045,4.443-8.093,6.778-12.032l1.978,1.174c-2.316,3.91-4.581,7.928-6.726,11.943" transform="translate(273.83 360.793)" fill="#fff"/>
      <path id="Path_7333" data-name="Path 7333" d="M101.93,240.6c-4.378-1.318-8.791-2.754-13.109-4.264l.758-2.17c4.289,1.5,8.666,2.928,13.015,4.232Z" transform="translate(382.7 645.774)" fill="#fff"/>
      <path id="Path_7334" data-name="Path 7334" d="M22.7,89.561l-2.113-.9c1.794-4.213,3.7-8.442,5.682-12.573l2.075.993c-1.962,4.1-3.861,8.3-5.644,12.481" transform="translate(266.316 376.139)" fill="#fff"/>
      <path id="Path_7335" data-name="Path 7335" d="M104.9,16.345l-.446-2.254c4.5-.887,9.078-1.683,13.621-2.373l.341,2.273c-4.505.682-9.053,1.475-13.515,2.354" transform="translate(409.368 266.346)" fill="#fff"/>
      <path id="Path_7336" data-name="Path 7336" d="M129.143,12.911l-.674.041c-4.556.287-9.159.679-13.675,1.161l-.241-2.286c4.546-.484,9.178-.877,13.775-1.169l.668-.041Z" transform="translate(426.594 264.468)" fill="#fff"/>
      <path id="Path_7337" data-name="Path 7337" d="M95.174,19.464l-.644-2.208c4.4-1.28,8.9-2.478,13.355-3.563l.544,2.232C104,17,99.544,18.193,95.174,19.464" transform="translate(392.438 269.715)" fill="#fff"/>
      <path id="Path_7338" data-name="Path 7338" d="M67.751,33.77l-1.207-1.959C70.473,29.4,74.5,27.051,78.506,24.83l1.115,2.01c-3.977,2.2-7.971,4.535-11.87,6.929" transform="translate(344.702 288.711)" fill="#fff"/>
      <path id="Path_7339" data-name="Path 7339" d="M76.521,28.223,75.5,26.164c4.1-2.043,8.325-4.023,12.541-5.9l.928,2.105c-4.18,1.851-8.369,3.82-12.444,5.85" transform="translate(359.972 280.93)" fill="#fff"/>
      <path id="Path_7340" data-name="Path 7340" d="M85.7,23.428l-.839-2.14c4.28-1.672,8.65-3.269,12.985-4.74l.741,2.175c-4.308,1.464-8.642,3.047-12.887,4.705" transform="translate(375.942 274.583)" fill="#fff"/>
      <path id="Path_7341" data-name="Path 7341" d="M19.2,99.2l-2.184-.712c1.415-4.359,2.944-8.739,4.543-13.017l2.154.806C22.124,90.52,20.606,94.868,19.2,99.2" transform="translate(260.221 392.143)" fill="#fff"/>
      <path id="Path_7342" data-name="Path 7342" d="M64.294,224.7c-3.664-2.765-7.314-5.641-10.85-8.561l1.464-1.775c3.509,2.9,7.132,5.758,10.774,8.5Z" transform="translate(322.357 611.996)" fill="#fff"/>
      <path id="Path_7343" data-name="Path 7343" d="M55.915,218.69c-3.4-3.068-6.791-6.256-10.057-9.481l1.607-1.64c3.252,3.2,6.613,6.369,9.99,9.413Z" transform="translate(309.418 600.412)" fill="#fff"/>
      <path id="Path_7344" data-name="Path 7344" d="M48.093,211.965c-3.131-3.363-6.22-6.84-9.2-10.33l1.751-1.494c2.955,3.469,6.023,6.921,9.126,10.257Z" transform="translate(297.542 587.742)" fill="#fff"/>
      <path id="Path_7345" data-name="Path 7345" d="M92.048,237.909c-4.243-1.7-8.515-3.52-12.69-5.411L80.3,230.4c4.151,1.878,8.388,3.685,12.6,5.371Z" transform="translate(366.559 639.361)" fill="#fff"/>
      <path id="Path_7346" data-name="Path 7346" d="M40.873,204.566c-2.822-3.626-5.6-7.362-8.255-11.107l1.88-1.329c2.633,3.718,5.387,7.427,8.188,11.026Z" transform="translate(286.834 574.078)" fill="#fff"/>
      <path id="Path_7347" data-name="Path 7347" d="M82.435,234.341c-4.08-2.064-8.177-4.259-12.176-6.515l1.131-2c3.969,2.243,8.033,4.418,12.084,6.475Z" transform="translate(351.039 631.545)" fill="#fff"/>
      <path id="Path_7348" data-name="Path 7348" d="M73.155,229.925c-3.891-2.432-7.782-4.978-11.556-7.568l1.3-1.9c3.747,2.573,7.608,5.1,11.472,7.511Z" transform="translate(336.267 622.401)" fill="#fff"/>
      <path id="Path_7349" data-name="Path 7349" d="M13.977,139.183l-2.3.095c-.187-4.605-.276-9.256-.265-13.821l2.3.005c-.014,4.532.073,9.148.26,13.721" transform="translate(250.665 460.352)" fill="#fff"/>
      <path id="Path_7350" data-name="Path 7350" d="M34.319,196.553c-2.487-3.858-4.924-7.833-7.24-11.805l1.989-1.155c2.3,3.942,4.716,7.884,7.184,11.713Z" transform="translate(277.386 559.516)" fill="#fff"/>
      <path id="Path_7351" data-name="Path 7351" d="M14.751,119.092l-2.281-.314c.622-4.543,1.353-9.137,2.173-13.645l2.262.409c-.817,4.478-1.542,9.037-2.154,13.55" transform="translate(252.467 425.685)" fill="#fff"/>
      <path id="Path_7352" data-name="Path 7352" d="M13.836,129.148l-2.294-.108c.211-4.573.533-9.213.947-13.786l2.294.206c-.417,4.543-.733,9.145-.947,13.688" transform="translate(250.884 442.949)" fill="#fff"/>
      <path id="Path_7353" data-name="Path 7353" d="M13.3,149.53c-.587-4.527-1.077-9.151-1.464-13.745l2.289-.192c.387,4.559.877,9.148,1.453,13.645Z" transform="translate(251.379 477.642)" fill="#fff"/>
      <path id="Path_7354" data-name="Path 7354" d="M23.417,178.889c-1.761-4.234-3.455-8.566-5.025-12.879l2.159-.785c1.558,4.278,3.239,8.58,4.987,12.782Z" transform="translate(262.568 528.185)" fill="#fff"/>
      <path id="Path_7355" data-name="Path 7355" d="M19.183,169.417c-1.38-4.372-2.676-8.837-3.858-13.272l2.224-.593c1.172,4.4,2.457,8.831,3.826,13.177Z" transform="translate(257.337 511.688)" fill="#fff"/>
      <path id="Path_7356" data-name="Path 7356" d="M15.8,159.6c-.985-4.481-1.88-9.045-2.665-13.561l2.265-.392c.779,4.481,1.669,9.01,2.646,13.464Z" transform="translate(253.6 494.794)" fill="#fff"/>
      <rect id="Rectangle_992" data-name="Rectangle 992" width="676.151" height="682.163" transform="translate(231.197 246.358)" fill="none"/>
      <rect id="Rectangle_993" data-name="Rectangle 993" width="676.151" height="682.163" transform="translate(231.197 246.358)" fill="none"/>
    </g>
  </g>
</svg>
