<svg xmlns="http://www.w3.org/2000/svg" width="50.549" height="54.261" viewBox="0 0 50.549 54.261">
  <g id="Group_389" data-name="Group 389" transform="translate(-1163.168 -836.417)">
    <line id="Line_62" data-name="Line 62" y1="16.248" transform="translate(1188.384 869.318)" fill="none" stroke="#000" stroke-linecap="round" stroke-linejoin="round" stroke-width="1"/>
    <path id="Path_228" data-name="Path 228" d="M141.832,684.2l-.244,3.1a.568.568,0,0,1-.569.568l-.631,0a.138.138,0,0,0-.1.049l-.623.752a.5.5,0,0,1-.387.182h-1.809a.506.506,0,0,1-.388-.182l-.623-.75a.136.136,0,0,0-.1-.049h-.632a.568.568,0,0,1-.568-.568l-.244-3.1" transform="translate(1050 178.732)" fill="none" stroke="#000" stroke-linecap="round" stroke-linejoin="round" stroke-width="1"/>
    <path id="Path_229" data-name="Path 229" d="M143.69,681.42c6.134-2.734,15.216-2.289,15.216-2.289v24.8a30.418,30.418,0,0,0-20.456,3.912" transform="translate(1050 178.732)" fill="none" stroke="#000" stroke-linecap="round" stroke-linejoin="round" stroke-width="1"/>
    <path id="Path_230" data-name="Path 230" d="M149.531,669.47" transform="translate(1050 178.732)" fill="none" stroke="#000" stroke-linecap="round" stroke-linejoin="round" stroke-width="1.473"/>
    <path id="Path_231" data-name="Path 231" d="M141.594,666.1a9.167,9.167,0,0,1,2.259,1.429,7.3,7.3,0,0,1,1.182,10.118c-.582.752-1.223,1.46-1.856,2.172a2.77,2.77,0,0,0-.756,1.913c0,.431,0,.862,0,1.294a1.045,1.045,0,0,1-1.142,1.142c-.931,0-4.68,0-5.611,0a1.044,1.044,0,0,1-1.142-1.142q0-.648,0-1.294a2.769,2.769,0,0,0-.755-1.913c-.633-.712-1.274-1.42-1.856-2.172A7.3,7.3,0,0,1,133.1,667.53a7.768,7.768,0,0,1,7.975-1.607Z" transform="translate(1050 178.732)" fill="none" stroke="#000" stroke-linecap="round" stroke-linejoin="round" stroke-width="1"/>
    <path id="Path_232" data-name="Path 232" d="M138.8,668.481a6.225,6.225,0,0,1,1.306.182,4.77,4.77,0,0,1,3.464,4.452,1.389,1.389,0,0,1-.021.307" transform="translate(1050 178.732)" fill="none" stroke="#000" stroke-linecap="round" stroke-linejoin="round" stroke-width="0.5"/>
    <path id="Path_233" data-name="Path 233" d="M123.032,672.71c.806-.007,3.652-.007,4.458,0" transform="translate(1050 178.732)" fill="none" stroke="#000" stroke-linecap="round" stroke-linejoin="round" stroke-width="1"/>
    <path id="Path_234" data-name="Path 234" d="M138.551,658.186c.007.806.007,3.652,0,4.458" transform="translate(1050 178.732)" fill="none" stroke="#000" stroke-linecap="round" stroke-linejoin="round" stroke-width="1"/>
    <line id="Line_63" data-name="Line 63" x1="3.426" y2="3.097" transform="translate(1196.963 841.093)" fill="none" stroke="#000" stroke-linecap="round" stroke-linejoin="round" stroke-width="1"/>
    <path id="Path_235" data-name="Path 235" d="M159.175,681.554h3.806s-.157,27.132,0,27.169c-9.157-4.037-20.742-.053-20.742-.053a4.158,4.158,0,0,1-7.616.1s-11.8-4.083-20.7-.046c-.1-.037,0-27.169,0-27.169h3.831" transform="translate(1050 178.732)" fill="none" stroke="#000" stroke-linecap="round" stroke-linejoin="round" stroke-width="1.473"/>
    <line id="Line_64" data-name="Line 64" x2="3.426" y2="3.097" transform="translate(1176.669 841.093)" fill="none" stroke="#000" stroke-linecap="round" stroke-linejoin="round" stroke-width="1"/>
    <path id="Path_236" data-name="Path 236" d="M149.764,672.71c.806-.007,3.651-.007,4.457,0" transform="translate(1050 178.732)" fill="none" stroke="#000" stroke-linecap="round" stroke-linejoin="round" stroke-width="1"/>
    <line id="Line_65" data-name="Line 65" x1="1.059" y1="1.874" transform="translate(1182.859 840.396)" fill="none" stroke="#000" stroke-linecap="round" stroke-linejoin="round" stroke-width="0.75"/>
    <line id="Line_66" data-name="Line 66" x1="1.222" y2="1.874" transform="translate(1193.127 840.396)" fill="none" stroke="#000" stroke-linecap="round" stroke-linejoin="round" stroke-width="0.75"/>
    <line id="Line_67" data-name="Line 67" x1="2.2" y1="0.896" transform="translate(1176.103 846.636)" fill="none" stroke="#000" stroke-linecap="round" stroke-linejoin="round" stroke-width="0.75"/>
    <line id="Line_68" data-name="Line 68" x1="2.2" y2="0.896" transform="translate(1199.504 846.635)" fill="none" stroke="#000" stroke-linecap="round" stroke-linejoin="round" stroke-width="0.75"/>
    <line id="Line_69" data-name="Line 69" x1="0.879" y2="0.358" transform="translate(1177.343 855.193)" fill="none" stroke="#000" stroke-linecap="round" stroke-linejoin="round" stroke-width="0.75"/>
    <line id="Line_70" data-name="Line 70" x1="1.058" y1="0.431" transform="translate(1198.933 855.193)" fill="none" stroke="#000" stroke-linecap="round" stroke-linejoin="round" stroke-width="0.75"/>
    <path id="Path_237" data-name="Path 237" d="M133.206,681.419c-6.383-2.733-15.212-2.288-15.212-2.288v24.8a30.5,30.5,0,0,1,20.456,3.912" transform="translate(1050 178.732)" fill="none" stroke="#000" stroke-linecap="round" stroke-linejoin="round" stroke-width="1"/>
  </g>
</svg>
