<svg xmlns="http://www.w3.org/2000/svg" xmlns:xlink="http://www.w3.org/1999/xlink" width="45.181" height="45.181" viewBox="0 0 45.181 45.181">
  <defs>
    <clipPath id="clip-path">
      <path id="Path_253" data-name="Path 253" d="M710.734,446.908a22.59,22.59,0,1,0,22.591-22.59,22.592,22.592,0,0,0-22.591,22.59" fill="none"/>
    </clipPath>
  </defs>
  <g id="Group_377" data-name="Group 377" transform="translate(-1760.734 -603.05)">
    <g id="Group_283" data-name="Group 283" transform="translate(1050 178.732)">
      <g id="Group_282" data-name="Group 282" clip-path="url(#clip-path)">
        <rect id="Rectangle_164" data-name="Rectangle 164" width="45.181" height="45.181" transform="translate(710.734 424.318)" fill="#ffd905"/>
      </g>
    </g>
    <path id="Path_254" data-name="Path 254" d="M734.853,441.243l5.108,5.109a.651.651,0,0,1,.315.558.663.663,0,0,1-.087.328.651.651,0,0,1-.111.149.756.756,0,0,1-.068.059l-5.154,5.154a.652.652,0,0,1-.922-.922l4.117-4.117H727.027a.651.651,0,0,1-.652-.651h0a.652.652,0,0,1,.652-.652h11l-4.093-4.093a.651.651,0,1,1,.919-.921" transform="translate(1050 178.732)" fill="#020202"/>
  </g>
</svg>
