<svg xmlns="http://www.w3.org/2000/svg" xmlns:xlink="http://www.w3.org/1999/xlink" width="45.182" height="45.182" viewBox="0 0 45.182 45.182">
  <defs>
    <clipPath id="clip-path">
      <rect id="Rectangle_165" data-name="Rectangle 165" width="45.182" height="45.182" transform="translate(710.734 364.317)" fill="none"/>
    </clipPath>
    <clipPath id="clip-path-2">
      <rect id="Rectangle_166" data-name="Rectangle 166" width="13.9" height="11.739" transform="translate(726.374 381.025)" fill="none"/>
    </clipPath>
  </defs>
  <g id="Group_376" data-name="Group 376" transform="translate(-1760.734 -543.049)">
    <g id="Group_286" data-name="Group 286" transform="translate(1050 178.732)" opacity="0.299">
      <g id="Group_285" data-name="Group 285">
        <g id="Group_284" data-name="Group 284" clip-path="url(#clip-path)">
          <path id="Path_255" data-name="Path 255" d="M733.325,364.317a22.59,22.59,0,1,0,22.59,22.591,22.591,22.591,0,0,0-22.59-22.591" fill="#fff"/>
        </g>
      </g>
    </g>
    <g id="Group_289" data-name="Group 289" transform="translate(1050 178.732)" opacity="0.696">
      <g id="Group_288" data-name="Group 288">
        <g id="Group_287" data-name="Group 287" clip-path="url(#clip-path-2)">
          <path id="Path_256" data-name="Path 256" d="M740.274,386.907a.652.652,0,0,1-.652.652h-11l4.093,4.093a.651.651,0,1,1-.919.921l-5.108-5.109a.651.651,0,0,1-.314-.558.642.642,0,0,1,.087-.328.622.622,0,0,1,.111-.149.552.552,0,0,1,.068-.059l5.154-5.154a.652.652,0,0,1,.921.922l-4.117,4.117h11.024a.651.651,0,0,1,.652.651Z" fill="#020202"/>
        </g>
      </g>
    </g>
  </g>
</svg>
