<svg xmlns="http://www.w3.org/2000/svg" width="85.844" height="103.038" viewBox="0 0 85.844 103.038">
  <g id="Group_411" data-name="Group 411" transform="translate(-1536.905 -374.795)">
    <path id="Path_314" data-name="Path 314" d="M562.565,105.6H539.214c-4.091,0-4.325-.239-4.325-4.382V77.98" transform="translate(1053.833 298.98)" fill="none" stroke="#034200" stroke-linecap="round" stroke-linejoin="round" stroke-width="2.235"/>
    <path id="Path_315" data-name="Path 315" d="M563.628,136.477c0-7.652.005-24.531.025-29.516a6.512,6.512,0,0,0-2.011-5.062c-8.076-7.992-16.088-16.053-24.189-24.022a4.051,4.051,0,0,0-2.617-.9c-14.818-.06-44.957-.041-44.957-.041a5.689,5.689,0,0,0-5.69,5.69V170.3a5.69,5.69,0,0,0,5.69,5.69h42.355" transform="translate(1053.833 298.98)" fill="none" stroke="#034200" stroke-linecap="round" stroke-linejoin="round" stroke-width="2.235"/>
    <line id="Line_96" data-name="Line 96" x2="22.765" transform="translate(1564.597 422.639)" fill="none" stroke="#034200" stroke-linecap="round" stroke-linejoin="round" stroke-width="1.517"/>
    <line id="Line_97" data-name="Line 97" x2="8.612" transform="translate(1564.746 417.686)" fill="none" stroke="#034200" stroke-linecap="round" stroke-linejoin="round" stroke-width="1.517"/>
    <line id="Line_98" data-name="Line 98" x2="21.503" transform="translate(1578.808 417.686)" fill="none" stroke="#034200" stroke-linecap="round" stroke-linejoin="round" stroke-width="1.517"/>
    <path id="Rectangle_229" data-name="Rectangle 229" d="M1.193,0H11.527A1.193,1.193,0,0,1,12.72,1.193V11.527a1.194,1.194,0,0,1-1.194,1.194H1.193A1.193,1.193,0,0,1,0,11.528V1.193A1.193,1.193,0,0,1,1.193,0Z" transform="translate(1547.626 409.918)" fill="none" stroke="#034200" stroke-linecap="round" stroke-linejoin="round" stroke-width="1.517"/>
    <path id="Path_316" data-name="Path 316" d="M497.131,118.476l1.325,1.174a.547.547,0,0,0,.736-.026l4.018-4.165" transform="translate(1053.833 298.98)" fill="none" stroke="#034200" stroke-linecap="round" stroke-linejoin="round" stroke-width="1.517"/>
    <line id="Line_99" data-name="Line 99" x2="44.191" transform="translate(1564.783 412.65)" fill="none" stroke="#034200" stroke-linecap="round" stroke-linejoin="round" stroke-width="1.517"/>
    <path id="Rectangle_230" data-name="Rectangle 230" d="M1.193,0H11.527A1.193,1.193,0,0,1,12.72,1.193V11.527a1.194,1.194,0,0,1-1.194,1.194H1.193A1.193,1.193,0,0,1,0,11.528V1.193A1.193,1.193,0,0,1,1.193,0Z" transform="translate(1547.626 430.696)" fill="none" stroke="#034200" stroke-linecap="round" stroke-linejoin="round" stroke-width="1.517"/>
    <path id="Path_317" data-name="Path 317" d="M497.131,138.936l1.325,1.17a.534.534,0,0,0,.736,0l4.018-4.163" transform="translate(1053.833 298.98)" fill="none" stroke="#034200" stroke-linecap="round" stroke-linejoin="round" stroke-width="1.517"/>
    <line id="Line_100" data-name="Line 100" x2="8.195" transform="translate(1564.597 443.464)" fill="none" stroke="#034200" stroke-linecap="round" stroke-linejoin="round" stroke-width="1.517"/>
    <line id="Line_101" data-name="Line 101" x2="11.913" transform="translate(1564.746 438.684)" fill="none" stroke="#034200" stroke-linecap="round" stroke-linejoin="round" stroke-width="1.517"/>
    <line id="Line_102" data-name="Line 102" x2="18.498" transform="translate(1564.783 433.818)" fill="none" stroke="#034200" stroke-linecap="round" stroke-linejoin="round" stroke-width="1.517"/>
    <path id="Rectangle_231" data-name="Rectangle 231" d="M1.193,0H11.527A1.193,1.193,0,0,1,12.72,1.193V11.527a1.194,1.194,0,0,1-1.194,1.194H1.193A1.193,1.193,0,0,1,0,11.528V1.193A1.193,1.193,0,0,1,1.193,0Z" transform="translate(1547.626 451.521)" fill="none" stroke="#034200" stroke-linecap="round" stroke-linejoin="round" stroke-width="1.517"/>
    <path id="Path_318" data-name="Path 318" d="M497.131,159.761l1.325,1.17a.534.534,0,0,0,.736,0l4.018-4.163" transform="translate(1053.833 298.98)" fill="none" stroke="#034200" stroke-linecap="round" stroke-linejoin="round" stroke-width="1.517"/>
    <line id="Line_103" data-name="Line 103" x2="9.367" transform="translate(1564.597 464.289)" fill="none" stroke="#034200" stroke-linecap="round" stroke-linejoin="round" stroke-width="1.517"/>
    <line id="Line_104" data-name="Line 104" x2="7.226" transform="translate(1564.746 459.509)" fill="none" stroke="#034200" stroke-linecap="round" stroke-linejoin="round" stroke-width="1.517"/>
    <line id="Line_105" data-name="Line 105" x2="6.78" transform="translate(1564.783 454.643)" fill="none" stroke="#034200" stroke-linecap="round" stroke-linejoin="round" stroke-width="1.517"/>
    <line id="Line_106" data-name="Line 106" x2="19.748" transform="translate(1564.738 395.846)" fill="none" stroke="#034200" stroke-linecap="round" stroke-linejoin="round" stroke-width="1.517"/>
    <line id="Line_107" data-name="Line 107" x2="7.958" transform="translate(1564.746 401.053)" fill="none" stroke="#034200" stroke-linecap="round" stroke-linejoin="round" stroke-width="1.517"/>
    <path id="Rectangle_232" data-name="Rectangle 232" d="M1.193,0H11.527A1.193,1.193,0,0,1,12.72,1.193V11.527a1.194,1.194,0,0,1-1.194,1.194H1.193A1.193,1.193,0,0,1,0,11.528V1.193A1.193,1.193,0,0,1,1.193,0Z" transform="translate(1547.626 389.141)" fill="none" stroke="#034200" stroke-linecap="round" stroke-linejoin="round" stroke-width="1.517"/>
    <path id="Path_319" data-name="Path 319" d="M497.131,97.381l1.325,1.169a.532.532,0,0,0,.736,0l4.018-4.162" transform="translate(1053.833 298.98)" fill="none" stroke="#034200" stroke-linecap="round" stroke-linejoin="round" stroke-width="1.517"/>
    <rect id="Rectangle_233" data-name="Rectangle 233" width="3.922" height="9.877" rx="0.852" transform="translate(1591.678 453.777)" fill="none" stroke="#034200" stroke-linecap="round" stroke-linejoin="round" stroke-width="0.905"/>
    <path id="Path_320" data-name="Path 320" d="M541.758,164.066l1.324.462a3.04,3.04,0,0,0,1,.169h7.293a1.3,1.3,0,0,0,1.314-1.187,1.281,1.281,0,0,0-.364-.991l.007-.023a1.5,1.5,0,0,0,1.6-1.481,1.481,1.481,0,0,0-.653-1.228l-.007-.021a1.682,1.682,0,0,0,.34-3.024q-.04-.025-.084-.048l.028-.017a1.677,1.677,0,0,0,.855-1.508,1.705,1.705,0,0,0-1.719-1.637H548.25a1.939,1.939,0,0,1,.24-1.521c.48-.56,1.2-1.361.8-3.762,0,0-.4-1.841-1.6-1.841a2.01,2.01,0,0,0-1.169.266.435.435,0,0,0-.18.375,6.733,6.733,0,0,1-2.093,4.722s-2.415,3.048-2.488,3.885" transform="translate(1053.833 298.98)" fill="none" stroke="#034200" stroke-linecap="round" stroke-linejoin="round" stroke-width="0.905"/>
    <path id="Path_321" data-name="Path 321" d="M532.476,140.163v-.02c-.343,0-.687,0-1.031,0-.988.01-1.23.236-1.228,1.211,0,.652.061,1.3.064,1.955a2.659,2.659,0,0,1-1.943,2.927c-.632.263-1.287.474-1.919.738-.817.343-.956.67-.625,1.488.278.682.606,1.344.9,2.022a2.626,2.626,0,0,1-.65,3.189c-.523.5-1.059.98-1.564,1.494-.655.668-.65,1.024.017,1.7.544.548,1.126,1.059,1.671,1.6a2.48,2.48,0,0,1,.578,2.885c-.283.7-.61,1.379-.9,2.077-.4.972-.28,1.246.7,1.65.727.3,1.477.553,2.2.873a2.292,2.292,0,0,1,1.486,2.109c.03.89-.02,1.782-.011,2.673.008.861.252,1.116,1.107,1.124.686.007,1.371-.061,2.058-.065a2.659,2.659,0,0,1,2.925,1.946c.276.665.5,1.351.788,2.01.316.722.613.845,1.342.56.685-.268,1.355-.58,2.026-.882a2.666,2.666,0,0,1,3.32.654c.446.476.884.96,1.345,1.422.781.783,1.112.786,1.882.013.5-.5.963-1.026,1.454-1.531a2.551,2.551,0,0,1,3.056-.62c.647.274,1.282.575,1.931.844,1.035.428,1.3.32,1.725-.716.3-.728.555-1.477.878-2.194a2.265,2.265,0,0,1,2.081-1.445c.822-.03,1.645.013,2.468.015,1.12,0,1.342-.211,1.334-1.313-.005-.652-.053-1.3-.067-1.955a2.689,2.689,0,0,1,1.894-2.81c.627-.234,1.257-.458,1.873-.715.948-.4,1.068-.683.682-1.621-.286-.7-.613-1.378-.9-2.076a2.5,2.5,0,0,1,.588-2.927q.457-.454.931-.89c1.619-1.492,1.618-1.62.017-3.1-.377-.349-.752-.7-1.1-1.082a2.3,2.3,0,0,1-.521-2.482c.265-.722.6-1.419.9-2.13.5-1.189.388-1.448-.811-1.932-.747-.3-1.508-.569-2.232-.916a2.1,2.1,0,0,1-1.251-1.876c-.04-.889,0-1.782,0-2.673-.005-.989-.236-1.23-1.211-1.228-.652,0-1.3.062-1.955.066a2.662,2.662,0,0,1-2.927-1.946c-.268-.648-.484-1.319-.761-1.964-.332-.769-.643-.9-1.416-.592-.6.24-1.187.536-1.785.794a2.754,2.754,0,0,1-3.693-.756c-.308-.322-.6-.66-.908-.983-1.067-1.123-1.359-1.119-2.431.021-.4.425-.792.858-1.2,1.273a2.511,2.511,0,0,1-2.969.6c-.665-.276-1.315-.586-1.98-.861-1.035-.428-1.3-.319-1.725.715-.3.728-.554,1.477-.877,2.194a2.289,2.289,0,0,1-2.082,1.445C533.505,140.184,532.99,140.163,532.476,140.163Z" transform="translate(1053.833 298.98)" fill="none" stroke="#034200" stroke-linecap="round" stroke-linejoin="round" stroke-width="0.905"/>
    <path id="Path_322" data-name="Path 322" d="M532.476,140.163c.514,0,1.029.021,1.542,0a2.289,2.289,0,0,0,2.082-1.445c.323-.717.576-1.466.877-2.194.428-1.034.69-1.143,1.725-.715.665.275,1.315.585,1.98.861a2.511,2.511,0,0,0,2.969-.6c.409-.415.8-.848,1.2-1.273,1.072-1.14,1.364-1.144,2.431-.021.307.323.6.661.908.983a2.754,2.754,0,0,0,3.693.756c.6-.258,1.18-.554,1.785-.794.773-.307,1.084-.177,1.416.592.277.645.493,1.316.761,1.964a2.662,2.662,0,0,0,2.927,1.946c.651,0,1.3-.064,1.955-.066.975,0,1.206.239,1.211,1.228,0,.891-.039,1.784,0,2.673a2.1,2.1,0,0,0,1.251,1.876c.724.347,1.485.616,2.232.916,1.2.484,1.311.743.811,1.932-.3.711-.631,1.408-.9,2.13a2.3,2.3,0,0,0,.521,2.482c.347.379.722.733,1.1,1.082,1.6,1.478,1.6,1.606-.017,3.1q-.474.435-.931.89a2.5,2.5,0,0,0-.588,2.927c.284.7.611,1.379.9,2.076.386.938.266,1.226-.682,1.621-.616.257-1.246.481-1.873.715a2.689,2.689,0,0,0-1.894,2.81c.014.652.062,1.3.067,1.955.008,1.1-.214,1.314-1.334,1.313-.823,0-1.646-.045-2.468-.015a2.265,2.265,0,0,0-2.081,1.445c-.323.717-.576,1.466-.878,2.194-.429,1.036-.69,1.144-1.725.716-.649-.269-1.284-.57-1.931-.844a2.551,2.551,0,0,0-3.056.62c-.491.505-.957,1.032-1.454,1.531-.77.773-1.1.77-1.882-.013-.461-.462-.9-.946-1.345-1.422a2.666,2.666,0,0,0-3.32-.654c-.671.3-1.341.614-2.026.882-.729.285-1.026.162-1.342-.56-.288-.659-.512-1.345-.788-2.01a2.659,2.659,0,0,0-2.925-1.946c-.687,0-1.372.072-2.058.065-.855-.008-1.1-.263-1.107-1.124-.009-.891.041-1.783.011-2.673a2.292,2.292,0,0,0-1.486-2.109c-.719-.32-1.469-.573-2.2-.873-.98-.4-1.1-.678-.7-1.65.285-.7.612-1.379.9-2.077a2.48,2.48,0,0,0-.578-2.885c-.545-.546-1.127-1.057-1.671-1.6-.667-.672-.672-1.028-.017-1.7.505-.514,1.041-1,1.564-1.494a2.626,2.626,0,0,0,.65-3.189c-.289-.678-.617-1.34-.9-2.022-.331-.818-.192-1.145.625-1.488.632-.264,1.287-.475,1.919-.738a2.659,2.659,0,0,0,1.943-2.927c0-.652-.063-1.3-.064-1.955,0-.975.24-1.2,1.228-1.211.344,0,.688,0,1.031,0Z" transform="translate(1053.833 298.98)" fill="none" stroke="#034200" stroke-linecap="round" stroke-linejoin="round" stroke-width="1.517"/>
    <path id="Path_323" data-name="Path 323" d="M531.025,155.992a15.051,15.051,0,1,1,15.035,15.067A15.048,15.048,0,0,1,531.025,155.992Z" transform="translate(1053.833 298.98)" fill="none" stroke="#034200" stroke-linecap="round" stroke-linejoin="round" stroke-width="0.905"/>
  </g>
</svg>
