<svg xmlns="http://www.w3.org/2000/svg" width="42.419" height="47.419" viewBox="0 0 42.419 47.419">
  <g id="Group_387" data-name="Group 387" transform="translate(-1413.698 -836.209)">
    <line id="Line_71" data-name="Line 71" x2="3.083" transform="translate(1433.804 864.76)" fill="none" stroke="#000" stroke-linecap="round" stroke-linejoin="round" stroke-width="1.069"/>
    <line id="Line_72" data-name="Line 72" x2="10.465" transform="translate(1433.918 860.958)" fill="none" stroke="#000" stroke-linecap="round" stroke-linejoin="round" stroke-width="1.069"/>
    <rect id="Rectangle_146" data-name="Rectangle 146" width="8.663" height="8.663" rx="0.813" transform="translate(1420.774 856.583)" fill="none" stroke="#000" stroke-linecap="round" stroke-linejoin="round" stroke-width="0.948"/>
    <path id="Path_238" data-name="Path 238" d="M373.048,682.983l.9.8a.372.372,0,0,0,.5-.017l2.737-2.836" transform="translate(1050 178.732)" fill="none" stroke="#000" stroke-linecap="round" stroke-linejoin="round" stroke-width="0.948"/>
    <line id="Line_73" data-name="Line 73" x2="15.083" transform="translate(1433.946 857.092)" fill="none" stroke="#000" stroke-linecap="round" stroke-linejoin="round" stroke-width="1.069"/>
    <rect id="Rectangle_147" data-name="Rectangle 147" width="8.663" height="8.663" rx="0.813" transform="translate(1420.774 869.247)" fill="none" stroke="#000" stroke-linecap="round" stroke-linejoin="round" stroke-width="0.948"/>
    <path id="Path_239" data-name="Path 239" d="M373.048,695.431l.9.8a.362.362,0,0,0,.5,0l2.737-2.834" transform="translate(1050 178.732)" fill="none" stroke="#000" stroke-linecap="round" stroke-linejoin="round" stroke-width="0.948"/>
    <line id="Line_74" data-name="Line 74" x2="7.703" transform="translate(1433.804 877.946)" fill="none" stroke="#000" stroke-linecap="round" stroke-linejoin="round" stroke-width="1.069"/>
    <line id="Line_75" data-name="Line 75" x2="6.959" transform="translate(1433.918 874.276)" fill="none" stroke="#000" stroke-linecap="round" stroke-linejoin="round" stroke-width="1.069"/>
    <line id="Line_76" data-name="Line 76" x2="13.814" transform="translate(1433.946 870.541)" fill="none" stroke="#000" stroke-linecap="round" stroke-linejoin="round" stroke-width="1.069"/>
    <line id="Line_77" data-name="Line 77" x2="13.362" transform="translate(1433.911 846.993)" fill="none" stroke="#000" stroke-linecap="round" stroke-linejoin="round" stroke-width="1.069"/>
    <line id="Line_78" data-name="Line 78" x2="6.11" transform="translate(1433.918 850.99)" fill="none" stroke="#000" stroke-linecap="round" stroke-linejoin="round" stroke-width="1.069"/>
    <rect id="Rectangle_148" data-name="Rectangle 148" width="8.663" height="8.663" rx="0.813" transform="translate(1420.774 842.918)" fill="none" stroke="#000" stroke-linecap="round" stroke-linejoin="round" stroke-width="0.948"/>
    <path id="Path_240" data-name="Path 240" d="M373.048,669.1l.9.8a.362.362,0,0,0,.5,0l2.737-2.834" transform="translate(1050 178.732)" fill="none" stroke="#000" stroke-linecap="round" stroke-linejoin="round" stroke-width="0.948"/>
    <rect id="Rectangle_149" data-name="Rectangle 149" width="41" height="46" rx="3.73" transform="translate(1414.408 836.918)" fill="none" stroke="#000" stroke-linecap="round" stroke-linejoin="round" stroke-width="1.419"/>
  </g>
</svg>
