<svg xmlns="http://www.w3.org/2000/svg" xmlns:xlink="http://www.w3.org/1999/xlink" width="141.765" height="34.889" viewBox="0 0 141.765 34.889">
  <defs>
    <clipPath id="clip-path">
      <rect id="Rectangle_975" data-name="Rectangle 975" width="141.765" height="34.889" transform="translate(0 0)" fill="none"/>
    </clipPath>
  </defs>
  <g id="Group_4416" data-name="Group 4416" transform="translate(0 0)" clip-path="url(#clip-path)">
    <path id="Path_4767" data-name="Path 4767" d="M10.985,23.56a7.478,7.478,0,0,1,1.754-5.008,6.835,6.835,0,0,1,4.846-2.274,7.97,7.97,0,0,1,3.392.386,6.434,6.434,0,0,1,4.245,5.1,8.328,8.328,0,0,1-.339,4.631,6.419,6.419,0,0,1-4.866,4.214,7.238,7.238,0,0,1-7.209-1.957,6.315,6.315,0,0,1-1.7-3.793c-.047-.432-.083-.864-.124-1.3m9.953-.054a6.425,6.425,0,0,0-.668-2.921,2.327,2.327,0,0,0-4.089-.078,4.88,4.88,0,0,0-.675,2.168,6.453,6.453,0,0,0,.52,3.549,2.347,2.347,0,0,0,2.31,1.435,2.3,2.3,0,0,0,2.03-1.413,6.109,6.109,0,0,0,.572-2.74" fill="#034200"/>
    <path id="Path_4768" data-name="Path 4768" d="M35.636,30.509v-.488c0-2.39.009-4.78-.008-7.17a6.871,6.871,0,0,0-.172-1.449,1.829,1.829,0,0,0-1.661-1.611A2.114,2.114,0,0,0,31.546,21a4.1,4.1,0,0,0-.332,1.521c-.032,2.509-.02,5.018-.007,7.527,0,.354-.085.479-.461.471q-1.7-.037-3.408,0c-.4.01-.475-.126-.473-.494q.015-4.754-.007-9.507c-.006-1.175-.051-2.349-.077-3.524,0-.141,0-.282,0-.458,1.209,0,2.368-.008,3.528.016.085,0,.217.226.238.36.073.476.107.958.162,1.5.3-.314.534-.591.8-.837a5.148,5.148,0,0,1,6.292-.52,4.674,4.674,0,0,1,1.925,3.162,13.027,13.027,0,0,1,.234,2.315c.028,2.5,0,4.991.021,7.487,0,.418-.129.506-.517.5-1.253-.023-2.507-.009-3.826-.009" fill="#034200"/>
    <path id="Path_4769" data-name="Path 4769" d="M49.3,21.151a1.51,1.51,0,0,0-1.057-1.693,4.912,4.912,0,0,0-2.922-.027c-.749.186-1.471.479-2.261.744-.089-.3-.2-.654-.3-1.013-.126-.443-.214-.9-.375-1.328-.114-.307-.036-.444.241-.573a11.36,11.36,0,0,1,3.608-.973,10.2,10.2,0,0,1,3.461.169,4.659,4.659,0,0,1,3.692,3.555,10.389,10.389,0,0,1,.287,2.342c.056,2.3.053,4.593.085,6.889.005.4.067.805.1,1.235H50c-.091-.427-.183-.857-.263-1.236a16.2,16.2,0,0,1-1.629,1.088,5.133,5.133,0,0,1-5.459-.652,4.623,4.623,0,0,1,.95-7.257,10.049,10.049,0,0,1,4.457-1.206c.408-.025.817-.042,1.245-.064m.226,2.788a5.413,5.413,0,0,0-3.259.707,1.739,1.739,0,0,0,.107,2.893,2.21,2.21,0,0,0,3.058-1.682c.076-.612.063-1.235.094-1.918" fill="#034200"/>
    <path id="Path_4770" data-name="Path 4770" d="M97.92,18.741a12.126,12.126,0,0,1,1.426-1.378,5.479,5.479,0,0,1,8.173,2.249,8.951,8.951,0,0,1,.792,3.8,8.252,8.252,0,0,1-1.093,4.471,5.679,5.679,0,0,1-5,2.95,4.806,4.806,0,0,1-4.4-2.32,1.136,1.136,0,0,0-.1-.12c-.007-.008-.022-.009-.091-.035-.053.711-.1,1.406-.16,2.145-.665,0-1.3.01-1.926-.013-.074,0-.2-.185-.2-.284,0-.526.058-1.053.059-1.579q.02-8.934.026-17.869c0-.533,0-.533.544-.533.5,0,1,.02,1.506-.007.345-.019.453.085.451.44-.015,2.536-.008,5.072-.008,7.607v.479m-.073,4.844a13.817,13.817,0,0,0,.207,2.314,3.53,3.53,0,0,0,2.968,2.824,3.583,3.583,0,0,0,3.816-1.608,6.788,6.788,0,0,0,.662-5.63,3.9,3.9,0,0,0-2.205-2.785,3.806,3.806,0,0,0-5.036,2.121,7.3,7.3,0,0,0-.412,2.764" fill="#034200"/>
    <path id="Path_4771" data-name="Path 4771" d="M80.054,33.342l-2.27,1.547-.959-1.576c-.56-.925-1.129-1.845-1.674-2.779a.384.384,0,0,0-.566-.2,7.276,7.276,0,0,1-9.667-5.058A7.468,7.468,0,0,1,69.9,16.212a7.171,7.171,0,0,1,7.74,2.346A7.487,7.487,0,0,1,77.5,28.32a.484.484,0,0,0-.056.685c.8,1.287,1.581,2.588,2.366,3.885.081.134.15.274.247.452m-2.948-9.975a5.1,5.1,0,1,0-10.192.007,5.154,5.154,0,0,0,5.257,5.187,5.093,5.093,0,0,0,4.935-5.194" fill="#034200"/>
    <path id="Path_4772" data-name="Path 4772" d="M.695,26.789c.887.279,1.718.572,2.566.8a4.013,4.013,0,0,0,2.112.028,1,1,0,0,0,.818-.859.969.969,0,0,0-.517-1.065c-.464-.245-.963-.424-1.436-.653a18.844,18.844,0,0,1-2.283-1.154,3.894,3.894,0,0,1-.431-6.058,5.54,5.54,0,0,1,3.167-1.489,9.51,9.51,0,0,1,4.632.5c.346.119.49.238.369.639-.23.754-.4,1.528-.59,2.293a1.173,1.173,0,0,1-.085.2A15.16,15.16,0,0,0,7,19.383a6.171,6.171,0,0,0-1.834.047.849.849,0,0,0-.713.8.969.969,0,0,0,.589,1.061c.618.293,1.261.532,1.9.787a5.965,5.965,0,0,1,2.587,1.687,4.174,4.174,0,0,1-.828,5.894,7.084,7.084,0,0,1-4.2,1.154A10.486,10.486,0,0,1,.4,30.044c-.339-.142-.466-.3-.361-.671.244-.872.45-1.755.659-2.584" fill="#034200"/>
    <path id="Path_4773" data-name="Path 4773" d="M120.113,28.113c.128.569.265,1.1.353,1.645.015.09-.162.267-.285.315a11.526,11.526,0,0,1-3.945.712,7.431,7.431,0,0,1-3.205-.555,5.767,5.767,0,0,1-3.438-4.083,8.728,8.728,0,0,1,.827-6.767,5.806,5.806,0,0,1,5.35-3,5.2,5.2,0,0,1,5.2,4.141,8.715,8.715,0,0,1,.256,3.534h-9.482a4.229,4.229,0,0,0,3.424,4.628,9.214,9.214,0,0,0,4.948-.573m-1.239-5.921c-.017-.283-.018-.52-.048-.753a3.784,3.784,0,0,0-.928-2.223,3.25,3.25,0,0,0-3.487-.826,4.264,4.264,0,0,0-2.639,3.8Z" fill="#034200"/>
    <path id="Path_4774" data-name="Path 4774" d="M92.514,16.7V30.5c-.623,0-1.3.01-1.984-.014-.067,0-.171-.206-.182-.322-.051-.587-.077-1.177-.118-1.881-.144.19-.233.3-.319.421a5.188,5.188,0,0,1-6.292,1.675,3.9,3.9,0,0,1-2.127-2.485,9.2,9.2,0,0,1-.453-2.512c-.057-2.773-.024-5.547-.025-8.32,0-.1.016-.206.029-.357.765,0,1.514-.011,2.261.017.072,0,.192.244.193.375.013,1.691,0,3.381.013,5.072.01,1.16.017,2.324.106,3.48a4.583,4.583,0,0,0,.432,1.586,2.782,2.782,0,0,0,3.668,1.236,3.628,3.628,0,0,0,2.268-3.57q.012-3.882-.006-7.766c0-.351.1-.456.444-.442.669.027,1.339.008,2.092.008" fill="#034200"/>
    <path id="Path_4775" data-name="Path 4775" d="M59.639,19.013a4.667,4.667,0,0,1,2.642-2.585,3.45,3.45,0,0,1,1.868-.14.349.349,0,0,1,.222.245c.009,1.241,0,2.482-.008,3.723,0,.023-.024.045-.061.111-.2-.017-.419-.033-.639-.054-1.675-.157-3.063.6-3.364,2.164a6.978,6.978,0,0,0-.094,1.261c-.009,2.126-.013,4.252,0,6.377,0,.359-.111.447-.451.441-1.136-.018-2.272-.022-3.408,0-.38.008-.457-.124-.456-.477q.016-5.071,0-10.141c0-1.029-.049-2.057-.1-3.084-.013-.26.073-.322.306-.32,1.017.006,2.035.011,3.052,0,.28,0,.37.106.38.366.027.7.07,1.409.106,2.114" fill="#034200"/>
    <path id="Path_4776" data-name="Path 4776" d="M138.188,30.542c-.162.009-.251.019-.341.019-.46,0-.92,0-1.414,0a25.42,25.42,0,0,0-7.546-18.19,25.34,25.34,0,0,0-18.184-7.6V2.984a27.032,27.032,0,0,1,18.473,7.225,27.234,27.234,0,0,1,9.012,20.333" fill="#034200"/>
    <path id="Path_4777" data-name="Path 4777" d="M140.771,20.745l-1.376.332C136.7,11.551,130.63,5.271,121.262,2.062c.049-.19.1-.415.163-.639s.13-.449.207-.715a26.593,26.593,0,0,1,10.289,5.617,27.459,27.459,0,0,1,8.85,14.42" fill="#034200"/>
    <path id="Path_4778" data-name="Path 4778" d="M130.377,1l.6-1a28.23,28.23,0,0,1,10.785,12.209l-1.063.507A27.159,27.159,0,0,0,130.377,1" fill="#034200"/>
  </g>
</svg>
