<svg xmlns="http://www.w3.org/2000/svg" width="38.075" height="50.887" viewBox="0 0 38.075 50.887">
  <g id="icon_password" transform="translate(814.673 2.672)">
    <g id="Group_1809" data-name="Group 1809">
      <path id="Path_1962" data-name="Path 1962" d="M-807.26,17.12c.118-2.287-.13-8.361.585-10.591a11.538,11.538,0,0,1,14.4-7.663,11.538,11.538,0,0,1,8.06,9.477c.261,1.838.069,7.434.189,9.265m6.42,26.719c0,2.074-.787,2.876-2.86,2.883-5.066.016-10.132.005-15.2.005h-14.892c-2.408,0-3.119-.711-3.12-3.088V20.791c0-2.366.757-3.133,3.089-3.134h29.939c2.262,0,3.039.768,3.041,3.028q.015,11.822.006,23.644Z" fill="none" stroke="#231f20" stroke-linecap="round" stroke-linejoin="round" stroke-width="2"/>
    </g>
    <g id="Group_1811" data-name="Group 1811">
      <g id="Group_1810" data-name="Group 1810">
        <path id="Path_1963" data-name="Path 1963" d="M-793.643,34.8a1.325,1.325,0,0,0-.6,1.282c.033.859.008,3.217.008,3.217-.011,1.4-.89,1.606-1.413,1.607h0c-.522,0-1.4-.209-1.415-1.6,0-.11-.036-2.723.006-3.238a1.253,1.253,0,0,0-.594-1.264,2.983,2.983,0,0,1-1.2-2.171,3.216,3.216,0,0,1,.909-2.48,3.172,3.172,0,0,1,2.293-.988h0a3.165,3.165,0,0,1,2.293.987,3.211,3.211,0,0,1,.908,2.479,2.98,2.98,0,0,1-1.2,2.173" fill="#231f20"/>
      </g>
    </g>
  </g>
</svg>
